<svg width="310" height="190" version="1.1" xmlns="http://www.w3.org/2000/svg" desc="Created with imagetracer.js version 1.2.6" ><path fill="rgb(0,0,0)" stroke="rgb(0,0,0)" stroke-width="1" opacity="0.996078431372549" d="M 136.5 20 L 152.5 22 L 163.5 26 Q 174.2 31.8 182 40.5 L 191 53.5 L 192 59.5 Q 190.7 63.7 184.5 63 L 179 59.5 Q 172.4 46.6 161.5 38 L 148.5 33 L 130.5 33 L 111.5 39 L 98 50.5 L 93.5 57 L 88.5 58 Q 84.8 56.8 86 50.5 Q 89.9 38.4 99.5 32 L 112.5 25 L 121.5 22 L 135.5 21 L 136.5 20 Z " /><path fill="rgb(0,0,0)" stroke="rgb(0,0,0)" stroke-width="1" opacity="0.996078431372549" d="M 54.5 72 Q 74.7 69.3 83 78.5 L 84 83.5 Q 83.3 85.8 79.5 85 L 73.5 81 L 59.5 80 L 50.5 82 L 40 89.5 Q 34.3 95.3 32 104.5 L 32 115.5 L 37 130.5 L 43.5 138 L 52.5 143 L 62.5 143 L 63.5 142 L 76.5 141 Q 81.1 143.9 82 150.5 L 79.5 154 L 69.5 156 L 53.5 157 Q 37.8 152.2 29 140.5 L 23 127.5 L 21 108.5 L 26 93.5 L 36 80 L 48.5 73 Q 53.3 74.2 54.5 72 Z " /><path fill="rgb(0,0,0)" stroke="rgb(0,0,0)" stroke-width="1" opacity="0.996078431372549" d="M 128.5 73 L 131.5 74 L 154.5 77 L 155.5 78 L 165.5 78 L 173 83.5 Q 173.8 88.3 170.5 89 L 163.5 89 L 150.5 86 L 139.5 86 L 127 84 L 130 108.5 L 132.5 113 L 134.5 114 L 156.5 115 L 160 118.5 L 161 120.5 L 158.5 124 L 149.5 124 L 148.5 123 L 133 122 L 136 144 Q 140.8 146.1 150.5 145 L 151.5 144 L 168.5 144 L 172 149.5 L 166.5 154 L 136.5 154 Q 135 151.5 129.5 153 L 125 149.5 L 123 138.5 L 123 128.5 L 122 127.5 L 122 115.5 L 119 102.5 L 117 82.5 L 119.5 78 L 121.5 78 L 128.5 73 Z " /><path fill="rgb(0,0,0)" stroke="rgb(0,0,0)" stroke-width="1" opacity="0.996078431372549" d="M 216.5 75 L 225.5 75 L 232.5 77 Q 249.4 83.6 260 96.5 L 263 100.5 L 264 106.5 L 268 115.5 L 269 134.5 L 267 140.5 L 264.5 143 L 257.5 144 L 253 137.5 Q 256.7 131.7 255 120.5 L 248 101.5 L 241.5 95 Q 232.7 86.8 217.5 85 L 214 81.5 Q 213 76 216.5 75 Z " /><path fill="rgb(0,0,0)" stroke="rgb(0,0,0)" stroke-width="1" opacity="0.996078431372549" d="M 94.5 76 L 100 77 L 102 83.5 L 104 102.5 L 107 115.5 L 108 136.5 L 109 137.5 L 110 150.5 L 109 153 L 103.5 154 L 99 150.5 L 98 134.5 L 97 133.5 L 97 120.5 L 95 109.5 L 95 99.5 L 91 79.5 L 92 77 L 94.5 76 Z " /><path fill="rgb(0,0,0)" stroke="rgb(0,0,0)" stroke-width="1" opacity="0.996078431372549" d="M 188.5 77 L 193 80.5 L 197 93.5 L 199 113.5 L 201 119.5 L 204 140.5 L 207.5 148 L 217.5 147 L 219.5 148 L 220.5 147 L 241 147 L 244 152.5 L 244 157.5 Q 241.8 161.3 234.5 160 L 232.5 160 L 200.5 160 L 195 155.5 L 191 137.5 L 190 123.5 L 187 112.5 L 187 102.5 L 186 101.5 L 186 93.5 L 185 92.5 L 184 81.5 L 186.5 78 L 188.5 77 Z " /><path fill="rgb(0,0,0)" stroke="rgb(0,0,0)" stroke-width="1" opacity="0" d="M 0 0 L 310 0 L 310 190 L 0 190 L 0 0 Z M 137 20 L 136 21 L 122 22 L 113 25 L 100 32 Q 90 38 86 51 Q 85 57 89 58 L 94 57 L 98 51 L 112 39 L 131 33 L 149 33 L 162 38 Q 172 47 179 60 L 185 63 Q 191 64 192 60 L 191 54 L 182 41 Q 174 32 164 26 L 153 22 L 137 20 Z M 55 72 Q 53 74 49 73 L 36 80 L 26 94 L 21 109 L 23 128 L 29 141 Q 38 152 54 157 L 70 156 L 80 154 L 82 151 Q 81 144 77 141 L 64 142 L 63 143 L 53 143 L 44 138 L 37 131 L 32 116 L 32 105 Q 34 95 40 90 L 51 82 L 60 80 L 74 81 L 80 85 Q 83 86 84 84 L 83 79 Q 75 69 55 72 Z M 129 73 L 122 78 L 120 78 L 117 83 L 119 103 L 122 116 L 122 128 L 123 129 L 123 139 L 125 150 L 130 153 Q 135 152 137 154 L 167 154 L 172 150 L 169 144 L 152 144 L 151 145 Q 141 146 136 144 L 133 122 L 149 123 L 150 124 L 159 124 L 161 121 L 160 119 L 157 115 L 135 114 L 133 113 L 130 109 L 127 84 L 140 86 L 151 86 L 164 89 L 171 89 Q 174 88 173 84 L 166 78 L 156 78 L 155 77 L 132 74 L 129 73 Z M 217 75 Q 213 76 214 82 L 218 85 Q 233 87 242 95 L 248 102 L 255 121 Q 257 132 253 138 L 258 144 L 265 143 L 267 141 L 269 135 L 268 116 L 264 107 L 263 101 L 260 97 Q 249 84 233 77 L 226 75 L 217 75 Z M 95 76 L 92 77 L 91 80 L 95 100 L 95 110 L 97 121 L 97 134 L 98 135 L 99 151 L 104 154 L 109 153 L 110 151 L 109 138 L 108 137 L 107 116 L 104 103 L 102 84 L 100 77 L 95 76 Z M 189 77 L 187 78 L 184 82 L 185 93 L 186 94 L 186 102 L 187 103 L 187 113 L 190 124 L 191 138 L 195 156 L 201 160 L 233 160 L 235 160 Q 242 161 244 158 L 244 153 L 241 147 L 221 147 L 220 148 L 218 147 L 208 148 L 204 141 L 201 120 L 199 114 L 197 94 L 193 81 L 189 77 Z " /></svg>